<svg id="_x35_0" enable-background="new 0 0 512 512" height="512" viewBox="0 0 512 512" width="512" xmlns="http://www.w3.org/2000/svg"><g><g><circle cx="256" cy="256" fill="#15be79" r="256"/></g><g><g><path d="m462.93 406.75c-46.56 63.8-121.91 105.25-206.93 105.25s-160.37-41.45-206.93-105.25z" fill="#d48d77"/><g fill="#eea47d"><path d="m380.58 406.75v72.95c-6.668 3.708-13.507 7.145-20.48 10.25v-83.2z"/><path d="m462.92 406.75c-4.978 6.838-10.303 13.422-15.94 19.73v-19.73z"/><path d="m200.532 406.75v42.24c0 5.66-4.59 10.25-10.25 10.25-5.65 0-10.24-4.59-10.24-10.25v-42.24z"/><path d="m305.71 437.94v69.23c-6.74 1.33-13.57 2.39-20.49 3.17v-72.4c0-5.65 4.59-10.24 10.24-10.24 5.656.004 10.249 4.576 10.25 10.24z"/><path d="m427.21 434.63v11.68c-6.53 5.9-13.37 11.45-20.49 16.63v-28.31c.528-13.576 19.964-13.571 20.49 0z"/><path d="m248.63 406.75v105.14c-6.849-.186-13.674-.653-20.48-1.39v-103.75z"/><path d="m163.68 460.62v34.23c-6.98-2.7-13.81-5.7-20.48-8.98v-25.25c.518-13.58 19.966-13.573 20.48 0z"/><path d="m95.83 407.27v48.44c-7.145-5.736-13.984-11.856-20.48-18.32v-30.12c0-.17 0-.35.01-.52h20.46c.01.18.01.35.01.52z"/></g></g></g><g><path d="m282.896 330.024h-53.792c-9.524 0-17.245 7.721-17.245 17.245v71.037h88.281v-71.037c.001-9.525-7.72-17.245-17.244-17.245z" fill="#334353"/><path d="m357.139 418.305h-202.278c-10.329 0-18.702 8.373-18.702 18.703 0 10.329 8.373 18.703 18.702 18.703h202.279c10.329 0 18.703-8.373 18.703-18.703-.001-10.33-8.374-18.703-18.704-18.703z" fill="#334353"/><path d="m318.361 418.305h-124.722c-6.369 0-11.532 5.163-11.532 11.532 0 6.369 5.163 11.532 11.532 11.532h124.722c6.369 0 11.532-5.163 11.532-11.532-.001-6.369-5.163-11.532-11.532-11.532z" fill="#3e4e60"/><path d="m446.321 126.531v211.03c0 5.754-1.71 11.132-4.665 15.629-3.707 5.754-9.421 10.043-16.173 11.923-2.462.713-5.093 1.089-7.75 1.089h-323.465c-2.709 0-5.287-.376-7.75-1.089-6.752-1.879-12.467-6.169-16.173-11.923-2.955-4.497-4.665-9.875-4.665-15.629v-211.03c0-2.657.376-5.287 1.075-7.75 2.67-9.551 10.173-17.093 19.763-19.763 2.462-.7 5.093-1.076 7.75-1.076h323.465c2.709 0 5.287.376 7.75 1.076 9.551 2.67 17.093 10.173 19.763 19.763.699 2.462 1.075 5.093 1.075 7.75z" fill="#3f5d77"/><path d="m107.37 126.531v211.03c0 5.754-1.711 11.132-4.678 15.629-3.706 5.754-9.421 10.043-16.173 11.923-6.752-1.879-12.467-6.169-16.173-11.923-2.955-4.497-4.665-9.875-4.665-15.629v-211.03c0-13.089 8.786-24.13 20.838-27.513 12.051 3.383 20.851 14.424 20.851 27.513z" fill="#3e4e60"/><path d="m446.321 126.531v211.03c0 5.754-1.71 11.132-4.665 15.629-3.707 5.754-9.421 10.043-16.173 11.923-6.752-1.879-12.467-6.169-16.173-11.923-2.968-4.497-4.678-9.875-4.678-15.629v-211.03c0-13.128 8.838-24.169 20.852-27.513 11.999 3.344 20.837 14.385 20.837 27.513z" fill="#3f6c8e"/><path d="m446.321 307.21v30.351c0 5.754-1.71 11.132-4.665 15.629-3.707 5.754-9.421 10.043-16.173 11.923-2.462.713-5.093 1.089-7.75 1.089h-323.465c-2.709 0-5.287-.376-7.75-1.089-6.752-1.879-12.467-6.169-16.173-11.923-2.955-4.497-4.665-9.875-4.665-15.629v-30.351z" fill="#3e4e60"/><path d="m107.37 307.21v30.351c0 5.754-1.711 11.132-4.678 15.629-3.706 5.754-9.421 10.043-16.173 11.923-6.752-1.879-12.467-6.169-16.173-11.923-2.955-4.497-4.665-9.875-4.665-15.629v-30.351z" fill="#334353"/><path d="m446.321 307.21v30.351c0 5.754-1.71 11.132-4.665 15.629-3.707 5.754-9.421 10.043-16.173 11.923-6.752-1.879-12.467-6.169-16.173-11.923-2.968-4.497-4.678-9.875-4.678-15.629v-30.351z" fill="#3f5d77"/><path d="m278.767 336.705h-45.534c-5.866 0-10.622 4.755-10.622 10.622 0 5.866 4.755 10.622 10.622 10.622h45.534c5.866 0 10.622-4.755 10.622-10.622 0-5.866-4.756-10.622-10.622-10.622z" fill="#334353"/><path d="m340.881 118.788h-135.473c-5.756 0-10.423-4.666-10.423-10.423 0-5.756 4.666-10.423 10.423-10.423h135.473c5.756 0 10.423 4.666 10.423 10.423 0 5.756-4.666 10.423-10.423 10.423z" fill="#3f6c8e"/><g><path d="m407.423 328.995h-302.846c-9.97 0-18.053-8.083-18.053-18.053v-174.102c0-9.97 8.083-18.053 18.053-18.053h302.845c9.97 0 18.053 8.083 18.053 18.053v174.102c0 9.97-8.082 18.053-18.052 18.053z" fill="#9175a7"/><g><path d="m303.676 302.975h-136.754c-11.151 0-20.191-9.04-20.191-20.191v-84.417c0-11.151 9.04-20.191 20.191-20.191h136.754c11.151 0 20.191 9.04 20.191 20.191v84.417c0 11.151-9.04 20.191-20.191 20.191z" fill="#fff"/><g><path d="m425.48 216.28v38.04h-65.17c-7.91 0-14.32-6.41-14.32-14.32v-9.4c0-7.91 6.41-14.32 14.32-14.32z" fill="#c2aacf"/><path d="m425.48 216.28v30.18h-65.17c-7.91 0-14.32-6.41-14.32-14.32v-1.54c0-7.91 6.41-14.32 14.32-14.32z" fill="#f0dae2"/></g><g><path d="m425.48 163.39v38.04h-65.17c-7.91 0-14.32-6.41-14.32-14.32v-9.39c0-7.92 6.41-14.33 14.32-14.33z" fill="#c2aacf"/><path d="m425.48 163.39v30.18h-65.17c-7.91 0-14.32-6.41-14.32-14.32v-1.53c0-7.92 6.41-14.33 14.32-14.33z" fill="#f0dae2"/></g><g><path d="m425.48 269.17v38.04h-65.17c-7.91 0-14.32-6.41-14.32-14.33v-9.39c0-7.91 6.41-14.32 14.32-14.32z" fill="#c2aacf"/><path d="m425.48 269.17v30.18h-65.17c-7.91 0-14.32-6.41-14.32-14.32v-1.54c0-7.91 6.41-14.32 14.32-14.32z" fill="#f0dae2"/></g><g fill="#f0dae2"><g><path d="m116.744 187.268h-14.398c-4.011 0-7.262 3.251-7.262 7.262v14.398c0 4.011 3.251 7.262 7.262 7.262h14.398c4.011 0 7.262-3.251 7.262-7.262v-14.398c0-4.011-3.251-7.262-7.262-7.262z"/><path d="m116.744 290.078h-14.398c-4.011 0-7.262 3.251-7.262 7.262v14.398c0 4.011 3.251 7.262 7.262 7.262h14.398c4.011 0 7.262-3.251 7.262-7.262v-14.398c0-4.01-3.251-7.262-7.262-7.262z"/><path d="m116.744 221.538h-14.398c-4.011 0-7.262 3.251-7.262 7.262v14.398c0 4.011 3.251 7.262 7.262 7.262h14.398c4.011 0 7.262-3.251 7.262-7.262v-14.398c0-4.011-3.251-7.262-7.262-7.262z"/><path d="m116.744 255.808h-14.398c-4.011 0-7.262 3.251-7.262 7.262v14.398c0 4.011 3.251 7.262 7.262 7.262h14.398c4.011 0 7.262-3.251 7.262-7.262v-14.398c0-4.011-3.251-7.262-7.262-7.262z"/></g><g><path d="m96.616 134.611v14.398c0 4.011 3.251 7.262 7.262 7.262h14.398c4.011 0 7.262-3.251 7.262-7.262v-14.398c0-4.011-3.251-7.262-7.262-7.262h-14.398c-4.011 0-7.262 3.251-7.262 7.262z"/><path d="m199.426 134.611v14.398c0 4.011 3.251 7.262 7.262 7.262h14.398c4.011 0 7.262-3.251 7.262-7.262v-14.398c0-4.011-3.251-7.262-7.262-7.262h-14.398c-4.01 0-7.262 3.251-7.262 7.262z"/><path d="m130.886 134.611v14.398c0 4.011 3.251 7.262 7.262 7.262h14.398c4.011 0 7.262-3.251 7.262-7.262v-14.398c0-4.011-3.251-7.262-7.262-7.262h-14.398c-4.011 0-7.262 3.251-7.262 7.262z"/><path d="m165.156 134.611v14.398c0 4.011 3.251 7.262 7.262 7.262h14.398c4.011 0 7.262-3.251 7.262-7.262v-14.398c0-4.011-3.251-7.262-7.262-7.262h-14.398c-4.011 0-7.262 3.251-7.262 7.262z"/><path d="m233.696 134.611v14.398c0 4.011 3.251 7.262 7.262 7.262h14.398c4.011 0 7.262-3.251 7.262-7.262v-14.398c0-4.011-3.251-7.262-7.262-7.262h-14.398c-4.01 0-7.262 3.251-7.262 7.262z"/><path d="m267.966 134.611v14.398c0 4.011 3.251 7.262 7.262 7.262h14.398c4.011 0 7.262-3.251 7.262-7.262v-14.398c0-4.011-3.251-7.262-7.262-7.262h-14.398c-4.01 0-7.262 3.251-7.262 7.262z"/><path d="m302.237 134.611v14.398c0 4.011 3.251 7.262 7.262 7.262h14.398c4.011 0 7.262-3.251 7.262-7.262v-14.398c0-4.011-3.251-7.262-7.262-7.262h-14.398c-4.011 0-7.262 3.251-7.262 7.262z"/></g></g></g><g><path d="m270.15 277.821c-5.814 0-12.179-3.427-18.996-10.243-22.371-22.369-38.924-35.756-52.336-33.366-10.094 1.798-19.463 12.737-29.485 34.426-.811 1.755-2.89 2.521-4.646 1.709-1.754-.811-2.52-2.89-1.709-4.645 11.218-24.279 21.893-36.116 34.612-38.382 16.473-2.933 33.929 10.725 58.514 35.309 6.865 6.865 12.56 9.43 16.926 7.61 13.133-5.459 17.924-47.981 17.858-73.502-.005-1.933 1.558-3.504 3.491-3.509h.009c1.929 0 3.495 1.561 3.5 3.491.019 7.235-.446 70.952-22.171 79.983-1.793.747-3.65 1.119-5.567 1.119z" fill="#3e4e60"/></g></g></g></g></svg>